HIERARCHY
ROOT root
{
	OFFSET	0	13.1	24.9
	CHANNELS 6  Xposition Yposition Zposition Xrotation Yrotation Zrotation
	JOINT spine_1
	{
		OFFSET	0	9.99999	0
		CHANNELS 3  Xrotation Yrotation Zrotation
		JOINT spine_2
		{
			OFFSET	0	112	-10
			CHANNELS 3  Xrotation Yrotation Zrotation
			JOINT spine_3
			{
				OFFSET	0	206.5	19.3
				CHANNELS 3  Xrotation Yrotation Zrotation
				JOINT spine_4
				{
					OFFSET	0	110.4	14.6
					CHANNELS 3  Xrotation Yrotation Zrotation
					JOINT neck_1
					{
						OFFSET	0	71.8	-50.3
						CHANNELS 3  Xrotation Yrotation Zrotation
						JOINT neck_2
						{
							OFFSET	0	86.2	-25.8
							CHANNELS 3  Xrotation Yrotation Zrotation
							JOINT head_ee
							{
								OFFSET	0	179.8	-8.7
								CHANNELS 3  Xrotation Yrotation Zrotation
								End Site
								{
									OFFSET	1	0	0
								}
							}
						}
					}
					JOINT left_clavicle
					{
						OFFSET	-43.2	22.4	-70.8
						CHANNELS 3  Xrotation Yrotation Zrotation
						JOINT left_shoulder
						{
							OFFSET	-93.9	-5.79999	48.7
							CHANNELS 3  Xrotation Yrotation Zrotation
							JOINT left_elbow
							{
								OFFSET	-291.4	-30.8	15.2
								CHANNELS 3  Xrotation Yrotation Zrotation
								JOINT left_lowarm_twist
								{
									OFFSET	-110.7	-3.89999	13.6
									CHANNELS 3  Xrotation Yrotation Zrotation
									JOINT left_hand
									{
										OFFSET	-110.7	-3.89999	13.6
										CHANNELS 3  Xrotation Yrotation Zrotation
										JOINT left_ee
										{
											OFFSET	-80.8	-5.10001	12.1
											CHANNELS 3  Xrotation Yrotation Zrotation
											End Site
											{
												OFFSET	1	0	0
											}
										}
									}
								}
							}
						}
					}
					JOINT right_clavicle
					{
						OFFSET	43.2	22.4	-70.8
						CHANNELS 3  Xrotation Yrotation Zrotation
						JOINT right_shoulder
						{
							OFFSET	93.9	-5.79999	48.7
							CHANNELS 3  Xrotation Yrotation Zrotation
							JOINT right_elbow
							{
								OFFSET	291.4	-30.8	15.2
								CHANNELS 3  Xrotation Yrotation Zrotation
								JOINT right_lowarm_twist
								{
									OFFSET	110.7	-3.89999	13.6
									CHANNELS 3  Xrotation Yrotation Zrotation
									JOINT right_hand
									{
										OFFSET	110.7	-3.89999	13.6
										CHANNELS 3  Xrotation Yrotation Zrotation
										JOINT right_ee
										{
											OFFSET	80.8	-5.10001	12.1
											CHANNELS 3  Xrotation Yrotation Zrotation
											End Site
											{
												OFFSET	1	0	0
											}
										}
									}
								}
							}
						}
					}
				}
			}
		}
	}
	JOINT left_hip
	{
		OFFSET	-82.8	-127.5	0.300001
		CHANNELS 3  Xrotation Yrotation Zrotation
		JOINT left_knee
		{
			OFFSET	-28.2	-396.7	2.2
			CHANNELS 3  Xrotation Yrotation Zrotation
			JOINT left_ankle
			{
				OFFSET	-11.7	-411.3	35.4
				CHANNELS 3  Xrotation Yrotation Zrotation
				JOINT left_toes
				{
					OFFSET	0	-60	-88.6
					CHANNELS 3  Xrotation Yrotation Zrotation
					JOINT left_foot_ee
					{
						OFFSET	-22.5	-16.5	-42.2
						CHANNELS 3  Xrotation Yrotation Zrotation
						End Site
						{
							OFFSET	1	0	0
						}
					}
				}
			}
		}
	}
	JOINT right_hip
	{
		OFFSET	82.8	-127.5	0.300001
		CHANNELS 3  Xrotation Yrotation Zrotation
		JOINT right_knee
		{
			OFFSET	28.2	-396.7	2.2
			CHANNELS 3  Xrotation Yrotation Zrotation
			JOINT right_ankle
			{
				OFFSET	11.7	-411.3	35.4
				CHANNELS 3  Xrotation Yrotation Zrotation
				JOINT right_toes
				{
					OFFSET	0	-60	-88.6
					CHANNELS 3  Xrotation Yrotation Zrotation
					JOINT right_foot_ee
					{
						OFFSET	22.5	-16.5	-42.2
						CHANNELS 3  Xrotation Yrotation Zrotation
						End Site
						{
							OFFSET	1	0	0
						}
					}
				}
			}
		}
	}
}
MOTION
Frames: 9
Frame Time: 0.02
1108.58 679.022 -1389.77 177.44 -55.443 173.589 -3.45182 0.847415 4.44805 -3.441 0.562951 4.49283 -3.38029 -0.659945 4.47964 -3.40828 0.0550597 4.52755 7.16768 -12.8851 -14.3759 7.61706 -8.65004 -17.2758 -0.0 0.0 -0.0 7.23407 -1.83853 14.0572 -15.2725 -5.62054 65.0967 0.254616 -7.18889 0.0159943 8.0662 0.213581 -1.00739 0.448 -21.861 -6.32112 -0.0 0.0 -0.0 7.12438 28.8903 -12.1873 10.3174 48.609 -80.215 0.214324 6.06053 -0.0113458 -72.2175 6.82926 -5.31665 2.57395 21.8506 -7.67736 0.0 0.0 0.0 26.2889 -18.2557 5.6606 -7.78471 0.241376 1.16942 -4.98353 26.9929 0.776797 -16.8438 0.0 0.0 -0.0 0.0 -0.0 -12.1046 27.6792 0.542257 -19.9816 -0.295857 -3.03655 -22.8325 -28.4035 -3.64884 17.6469 -0.0 -0.0 0.0 0.0 0.0 
1135.89 698.535 -1381.36 177.663 -53.4142 172.378 -3.45128 0.994177 4.57722 -3.4399 0.701223 4.63105 -3.36521 -0.56214 4.64994 -3.39532 0.178454 4.68033 6.90931 -12.3107 -11.8371 7.24213 -10.1145 -14.2349 -0.0 0.0 -0.0 7.35084 -3.85228 14.28 -13.5401 -6.07279 64.2458 0.228452 -6.45676 0.0128859 9.7131 0.239632 -1.21614 0.909354 -23.784 -4.12644 -0.0 0.0 -0.0 7.84159 28.5525 -13.7985 3.89884 49.0119 -76.8508 0.198465 5.61507 -0.00973272 -72.7214 6.89367 -5.31838 2.39516 20.9914 -6.90971 0.0 0.0 0.0 24.8565 -17.31 6.21537 -8.2524 0.250789 1.24057 -2.64692 27.7882 0.412804 -18.0912 0.0 0.0 -0.0 0.0 -0.0 -7.19752 26.3204 -0.505817 -28.7291 -0.0906435 -4.36196 -24.2039 -29.1956 -3.88825 20.1179 -0.0 -0.0 0.0 0.0 0.0 
1161.58 699.001 -1379.63 177.753 -53.1032 172.631 -3.40128 0.967678 4.4765 -3.3904 0.681167 4.52885 -3.31949 -0.55051 4.54655 -3.34829 0.173663 4.5764 6.10834 -10.1877 -7.52929 6.30018 -10.6305 -9.10473 -0.0 0.0 -0.0 7.39426 -4.16191 14.3656 -10.3635 -7.14626 62.7225 0.191408 -5.41662 0.00905445 9.49696 0.236555 -1.1887 1.26808 -25.4199 -2.52498 -0.0 0.0 -0.0 8.8111 27.701 -16.0325 -1.68979 49.4223 -75.6293 0.230859 6.52422 -0.0131581 -72.631 6.88212 -5.31811 2.28399 19.2743 -6.98811 0.0 0.0 0.0 23.2547 -16.1415 6.86858 -8.16406 0.249055 1.22713 0.726338 26.5456 -0.111669 -19.8745 0.0 0.0 -0.0 0.0 -0.0 -0.472222 25.0033 -1.01776 -42.2437 0.615646 -6.30949 -21.8242 -29.5597 -3.51313 22.8285 -0.0 -0.0 0.0 0.0 0.0 
1186.53 702.363 -1363.46 176.954 -54.6648 172.351 -3.26799 0.734858 3.96797 -3.25936 0.481084 4.0066 -3.21304 -0.596949 3.99101 -3.23526 0.0403153 4.03514 7.87297 -10.4355 -8.79861 8.0754 -9.48972 -10.6622 -0.0 0.0 -0.0 6.82972 -4.69651 13.198 -9.96731 -7.47324 61.7696 0.244447 -6.90459 0.0147468 9.19189 0.232037 -1.14999 1.78975 -27.8951 -0.319731 -0.0 0.0 -0.0 8.75333 27.7023 -15.9046 -6.88724 47.9833 -72.3637 0.227228 6.42247 -0.0127488 -72.5015 6.86556 -5.31769 2.18787 19.335 -6.31869 0.0 0.0 0.0 21.1773 -16.0791 7.77294 -9.32412 0.270164 1.40388 1.78095 25.0642 -0.270942 -18.7398 0.0 0.0 -0.0 0.0 -0.0 4.90825 22.87 0.0540784 -49.4081 1.17102 -7.26107 -24.7515 -29.3512 -3.98035 24.1667 -0.0 -0.0 0.0 0.0 0.0 
1222.5 711.189 -1355.91 175.717 -54.0196 171.533 -3.10219 0.681831 3.73423 -3.09455 0.443004 3.76997 -3.05454 -0.560577 3.75432 -3.0742 0.0389383 3.79568 9.13106 -10.1801 -9.94392 9.342 -7.70389 -12.118 -0.0 0.0 -0.0 6.81537 -5.23861 13.1562 -8.55234 -6.8391 62.284 0.397242 -11.1327 0.0387147 8.58363 0.222413 -1.07289 1.4845 -27.8601 -2.248 -0.0 0.0 -0.0 8.77369 27.8698 -15.9306 -9.58332 48.2708 -69.6435 0.251463 7.10076 -0.0156021 -72.5844 6.87616 -5.31796 2.36316 19.076 -7.61068 0.0 0.0 0.0 20.0908 -15.8759 8.8997 -10.5424 0.288474 1.58992 1.84751 24.6377 -0.280405 -17.6069 0.0 0.0 -0.0 0.0 -0.0 6.11244 21.9071 0.867714 -54.4014 1.62672 -7.88046 -24.7508 -29.5086 -3.98441 26.8354 -0.0 -0.0 0.0 0.0 0.0 
1242.03 697.097 -1352.56 173.575 -52.7862 169.741 -3.11079 0.665912 3.49954 -3.10409 0.44202 3.53476 -3.06719 -0.500554 3.52696 -3.08454 0.0623781 3.56171 9.33408 -9.01373 -9.03044 9.50458 -6.57942 -11.0182 -0.0 0.0 -0.0 6.64078 -4.98848 12.8036 -7.44303 -5.73963 62.0625 0.478125 -13.3251 0.0558503 7.88988 0.210437 -0.985082 1.27761 -27.9101 -3.59028 -0.0 0.0 -0.0 8.87604 28.1003 -16.1308 -12.7525 48.7618 -66.8158 0.300291 8.46119 -0.0222132 -72.7191 6.89337 -5.31837 2.45298 18.7781 -8.35336 0.0 0.0 0.0 18.3234 -15.7612 10.2915 -12.3759 0.308565 1.87052 3.88078 24.1975 -0.584781 -16.306 0.0 0.0 -0.0 0.0 -0.0 7.8915 20.6903 -0.0427742 -58.3939 2.02907 -8.34612 -25.2738 -29.8013 -4.07657 30.2605 -0.0 -0.0 0.0 0.0 0.0 
1263.68 703.397 -1342.56 172.226 -51.2127 168.666 -3.10197 0.522507 3.20959 -3.0963 0.317323 3.2363 -3.07052 -0.542876 3.20622 -3.08487 -0.0299794 3.25166 8.07767 -6.70443 -6.42063 8.17247 -5.37817 -7.77638 -0.0 0.0 -0.0 6.39303 -5.26867 12.2879 -4.77778 -4.45399 60.6487 0.595784 -16.4433 0.086084 8.23877 0.216592 -1.02922 0.967033 -25.7271 -4.60916 -0.0 0.0 -0.0 8.74699 25.97 -16.0784 -19.3561 50.6294 -62.9861 0.371916 10.4391 -0.033975 -73.6379 7.01081 -5.32006 2.37647 18.9755 -7.74731 0.0 0.0 0.0 16.8008 -15.8418 10.0638 -15.0042 0.321683 2.27353 7.24092 25.0537 -1.08605 -14.7683 0.0 0.0 -0.0 0.0 -0.0 8.70698 20.3403 0.0734982 -60.3921 2.24247 -8.5685 -24.6253 -28.2677 -3.93263 33.4543 -0.0 -0.0 0.0 0.0 0.0 
1285.39 702.941 -1335.22 169.652 -50.7936 167.469 -3.74059 0.376517 2.94949 -3.73577 0.188155 2.96745 -3.71888 -0.630004 2.90595 -3.73063 -0.163368 2.96891 7.43627 -4.9955 -4.57588 7.48769 -4.27494 -5.52944 -0.0 0.0 -0.0 6.31844 -5.11986 12.1395 -3.2559 -3.50266 60.5699 0.741084 -20.1587 0.131734 7.70076 0.206988 -0.961171 0.56808 -25.0581 -6.90754 -0.0 0.0 -0.0 9.89477 24.4758 -18.7846 -24.2556 50.8942 -58.3362 0.410099 11.4836 -0.0412357 -73.9851 7.05519 -5.3202 2.37558 20.0162 -7.2465 0.0 0.0 0.0 14.8159 -16.368 9.78696 -15.9172 0.321912 2.4136 9.71146 26.3816 -1.45674 -14.3574 0.0 0.0 -0.0 0.0 -0.0 10.0302 21.0567 0.0999455 -62.4641 2.47186 -8.79119 -20.341 -24.862 -3.18415 34.3232 -0.0 -0.0 0.0 0.0 0.0 
1306.83 707.412 -1331.1 167.731 -48.8047 166.316 -4.3158 0.482123 2.75643 -4.31163 0.305817 2.78149 -4.28954 -0.493282 2.75445 -4.30012 -0.0522541 2.79775 6.39732 -2.84563 -2.65194 6.41506 -2.46538 -3.18894 -0.0 0.0 -0.0 6.601 -5.6084 12.7054 -0.827349 -2.29762 60.5393 0.917115 -24.4325 0.198564 6.99879 0.193496 -0.872516 0.169759 -22.7757 -8.54987 -0.0 0.0 -0.0 10.3123 24.1159 -19.7558 -29.0729 51.629 -53.1198 0.447035 12.4867 -0.0489061 -73.8544 7.03849 -5.32018 2.32864 21.6831 -6.13761 0.0 0.0 0.0 12.5167 -16.7946 10.5472 -17.0185 0.319218 2.58256 13.2462 28.283 -1.98778 -13.8924 0.0 0.0 -0.0 0.0 -0.0 12.928 20.2651 -1.75828 -65.19 2.7857 -9.07137 -16.7128 -21.635 -2.57346 35.4588 -0.0 -0.0 0.0 0.0 0.0 
